<?xml version="1.0" standalone="no"?><!DOCTYPE svg PUBLIC "-//W3C//DTD SVG 1.1//EN" "http://www.w3.org/Graphics/SVG/1.1/DTD/svg11.dtd"><svg t="1525244248764" class="icon" style="" viewBox="0 0 1675 1024" version="1.1" xmlns="http://www.w3.org/2000/svg" p-id="1702" xmlns:xlink="http://www.w3.org/1999/xlink" width="26.171875" height="16"><defs><style type="text/css"></style></defs><path d="M1118.753 410.885c-4.673 0-9.344 0.425-14.027 0.704-44.426-158.396-189.705-270.366-356.768-270.366-0.025 0-0.055 0-0.085 0-143.365 0-267.711 81.442-329.292 200.584-3.229 2.009-5.425 1.656-7.706 1.656-148.689 0-269.663 120.972-269.663 269.662s120.973 269.663 269.663 269.663h707.878c130.087 0 235.951-105.866 235.951-235.951s-105.866-235.951-235.951-235.951zM1118.753 815.379h-707.878c-111.533 0-202.253-90.722-202.253-202.253s90.722-202.253 202.253-202.253c8.7 0.049 17.213 0.632 25.568 1.718-1.348-0.152-0.728-0.43-0.024-0.395 0.084 0.001 0.184 0.002 0.283 0.002 1.853 0 3.671-0.155 5.441-0.453 3.341-0.191 6.637-0.93 9.712-2.116-0.935 0.309-0.28-0.189 0.472-0.54 5.43-2.366 9.924-6.008 13.245-10.563-3.78 4.326-3.223 3.368-2.483 2.542 3.806-4.070 6.589-9.144 7.903-14.783-2.381 6.726-1.945 6.422-1.726 5.926 47.598-108.877 154.358-183.578 278.567-183.578 0.044 0 0.087 0 0.13 0 145.32 0 270.601 103.56 297.809 246.266 0 0.061 0 0.11 0.061 0.17s0 0.122 0 0.193c0.145 0.74 0.642 1.286 0.837 2.003 1.343 5.31 3.795 9.925 7.108 13.781-0.105-0.233 3.784 3.063 8.276 5.341-4.555-1.501-0.072 1.869 5.056 3.998-0.97-0.698 7.712 1.985 16.979 2.438-2.986-0.515-0.766-0.736 1.385-1.153s-0.19 0.049-0.13-0.012 0.134 0 0.205 0c9.984-2.115 21.457-3.325 33.212-3.325 92.895 0 168.506 75.612 168.506 168.542s-75.601 168.505-168.518 168.505z" p-id="1703" fill="#ffffff"></path></svg>